<svg width="18" height="21" viewBox="0 0 18 21" fill="none" xmlns="http://www.w3.org/2000/svg">
<g clip-path="url(#clip0_1_14)">
<path d="M10.768 17.0626H11.732C11.8598 17.0626 11.9824 17.0107 12.0728 16.9184C12.1632 16.8262 12.214 16.701 12.214 16.5705V7.71154C12.214 7.58104 12.1632 7.45588 12.0728 7.3636C11.9824 7.27133 11.8598 7.21948 11.732 7.21948H10.768C10.6402 7.21948 10.5176 7.27133 10.4272 7.3636C10.3368 7.45588 10.286 7.58104 10.286 7.71154V16.5715C10.2863 16.7019 10.3372 16.8267 10.4275 16.9188C10.5179 17.0109 10.6403 17.0626 10.768 17.0626ZM17.357 3.28103H14.046L12.68 0.95552C12.5085 0.663893 12.2659 0.422597 11.9758 0.255142C11.6858 0.0876876 11.3582 -0.000214503 11.025 3.93075e-07H6.975C6.64196 -3.81828e-05 6.31458 0.0879477 6.02473 0.255394C5.73488 0.42284 5.49244 0.664041 5.321 0.95552L3.954 3.28103H0.643C0.472466 3.28103 0.308916 3.35018 0.18833 3.47329C0.0677444 3.59639 0 3.76335 0 3.93744L0 4.59385C0 4.76794 0.0677444 4.9349 0.18833 5.058C0.308916 5.1811 0.472466 5.25026 0.643 5.25026H1.286V19.0318C1.286 19.5541 1.48923 20.0549 1.85099 20.4242C2.21275 20.7935 2.7034 21.001 3.215 21.001H14.786C15.2976 21.001 15.7883 20.7935 16.15 20.4242C16.5118 20.0549 16.715 19.5541 16.715 19.0318V5.25026H17.358C17.5284 5.24999 17.6917 5.18071 17.812 5.05764C17.9324 4.93457 18 4.76776 18 4.59385V3.93744C18 3.85124 17.9834 3.76588 17.9511 3.68624C17.9187 3.6066 17.8714 3.53424 17.8117 3.47329C17.752 3.41233 17.6811 3.36398 17.6031 3.33099C17.5251 3.29801 17.4414 3.28103 17.357 3.28103ZM6.9 2.08765C6.92144 2.05117 6.95179 2.02099 6.98807 2.00005C7.02435 1.97912 7.06532 1.96815 7.107 1.96821H10.884C10.9257 1.96815 10.9667 1.97912 11.0029 2.00005C11.0392 2.02099 11.0696 2.05117 11.091 2.08765L11.791 3.28103H6.2L6.9 2.08765ZM14.781 19.0338H3.214V5.25026H14.786L14.781 19.0338ZM6.268 17.0626H7.232C7.35983 17.0626 7.48243 17.0107 7.57283 16.9184C7.66322 16.8262 7.714 16.701 7.714 16.5705V7.71154C7.714 7.58104 7.66322 7.45588 7.57283 7.3636C7.48243 7.27133 7.35983 7.21948 7.232 7.21948H6.268C6.14017 7.21948 6.01757 7.27133 5.92717 7.3636C5.83678 7.45588 5.786 7.58104 5.786 7.71154V16.5715C5.78626 16.7019 5.83716 16.8267 5.92753 16.9188C6.01789 17.0109 6.14034 17.0626 6.268 17.0626Z" fill="#F3115E"/>
</g>
<defs>
<clipPath id="clip0_1_14">
<rect width="18" height="21" fill="white"/>
</clipPath>
</defs>
</svg>
