<svg width="18" height="18" viewBox="0 0 18 18" fill="none" xmlns="http://www.w3.org/2000/svg">
<g clip-path="url(#clip0_1_11)">
<path d="M17.504 4.99299L15.883 6.61399C15.8437 6.65366 15.797 6.68515 15.7455 6.70664C15.694 6.72814 15.6388 6.7392 15.583 6.7392C15.5272 6.7392 15.4719 6.72814 15.4204 6.70664C15.369 6.68515 15.3222 6.65366 15.283 6.61399L11.383 2.71399C11.3433 2.67475 11.3118 2.62803 11.2903 2.57653C11.2688 2.52504 11.2578 2.46979 11.2578 2.41399C11.2578 2.35819 11.2688 2.30295 11.2903 2.25145C11.3118 2.19996 11.3433 2.15324 11.383 2.11399L13.004 0.492993C13.3209 0.177223 13.7501 -7.62939e-05 14.1975 -7.62939e-05C14.6449 -7.62939e-05 15.074 0.177223 15.391 0.492993L17.504 2.60599C17.6611 2.76253 17.7857 2.94854 17.8707 3.15335C17.9558 3.35815 17.9995 3.57773 17.9995 3.79949C17.9995 4.02125 17.9558 4.24083 17.8707 4.44564C17.7857 4.65044 17.6611 4.83645 17.504 4.99299ZM9.99099 3.50599L0.757985 12.739L0.0129851 17.01C-0.0101671 17.1434 -0.000898432 17.2805 0.0400099 17.4096C0.0809183 17.5388 0.152268 17.6562 0.248044 17.7519C0.343821 17.8477 0.461218 17.9191 0.590341 17.96C0.719465 18.0009 0.85653 18.0101 0.989985 17.987L5.26198 17.238L14.494 8.00599C14.5337 7.96675 14.5651 7.92003 14.5866 7.86853C14.6081 7.81704 14.6192 7.76179 14.6192 7.70599C14.6192 7.65019 14.6081 7.59495 14.5866 7.54345C14.5651 7.49196 14.5337 7.44524 14.494 7.40599L10.594 3.50599C10.5141 3.42709 10.4063 3.38285 10.294 3.38285C10.1817 3.38285 10.0739 3.42709 9.99399 3.50599H9.99099ZM4.36199 11.948C4.31542 11.9024 4.27843 11.8479 4.25318 11.7878C4.22792 11.7277 4.21491 11.6632 4.21491 11.598C4.21491 11.5328 4.22792 11.4683 4.25318 11.4082C4.27843 11.3481 4.31542 11.2936 4.36199 11.248L9.77599 5.83699C9.86881 5.74417 9.99471 5.69202 10.126 5.69202C10.2573 5.69202 10.3832 5.74417 10.476 5.83699C10.5688 5.92982 10.621 6.05572 10.621 6.18699C10.621 6.31827 10.5688 6.44417 10.476 6.53699L5.05798 11.948C5.01236 11.9946 4.95791 12.0315 4.89781 12.0568C4.83771 12.0821 4.77317 12.0951 4.70798 12.0951C4.6428 12.0951 4.57826 12.0821 4.51816 12.0568C4.45806 12.0315 4.40361 11.9946 4.35799 11.948H4.36199ZM3.09299 14.904H4.77599V16.18L2.50799 16.58L1.41899 15.484L1.81899 13.216H3.09299V14.904Z" fill="#064EBC"/>
</g>
<defs>
<clipPath id="clip0_1_11">
<rect width="18" height="18" fill="white"/>
</clipPath>
</defs>
</svg>
